<mxfile host="app.diagrams.net" modified="2023-04-19T09:23:48.820Z" agent="5.0 (Windows NT 10.0; Win64; x64) AppleWebKit/537.36 (KHTML, like Gecko) Chrome/110.0.0.0 YaBrowser/23.3.2.806 Yowser/2.5 Safari/537.36" version="20.6.0" etag="bCSNajUJFpSyK3tAskOn" type="github">
  <diagram id="jZFZSMegm6beznA44UZG" name="Страница 1">
    <mxGraphModel dx="1897" dy="831" grid="0" gridSize="10" guides="1" tooltips="1" connect="1" arrows="1" fold="1" page="0" pageScale="1" pageWidth="827" pageHeight="1169" math="0" shadow="0">
      <root>
        <mxCell id="0" />
        <mxCell id="1" parent="0" />
        <mxCell id="m-ObI3ja5nDpz2vfm1fv-1" value="Корпус" style="rounded=0;whiteSpace=wrap;html=1;align=center;verticalAlign=top;fontSize=23;" vertex="1" parent="1">
          <mxGeometry x="200" y="220" width="1053" height="698" as="geometry" />
        </mxCell>
        <mxCell id="m-ObI3ja5nDpz2vfm1fv-3" value="&lt;font style=&quot;font-size: 14px;&quot;&gt;Шнур&lt;/font&gt;" style="rounded=0;whiteSpace=wrap;html=1;" vertex="1" parent="1">
          <mxGeometry x="-32" y="823" width="120" height="60" as="geometry" />
        </mxCell>
        <mxCell id="m-ObI3ja5nDpz2vfm1fv-12" value="Электродвигатель" style="rounded=0;whiteSpace=wrap;html=1;fontSize=17;" vertex="1" parent="1">
          <mxGeometry x="389.5" y="498" width="220" height="124" as="geometry" />
        </mxCell>
        <mxCell id="m-ObI3ja5nDpz2vfm1fv-27" value="" style="group;fontSize=14;fontStyle=0" vertex="1" connectable="0" parent="1">
          <mxGeometry x="328.5" y="281" width="342" height="136" as="geometry" />
        </mxCell>
        <mxCell id="m-ObI3ja5nDpz2vfm1fv-24" value="&lt;font style=&quot;font-size: 14px;&quot;&gt;Система управления&lt;/font&gt;" style="rounded=0;whiteSpace=wrap;html=1;verticalAlign=top;" vertex="1" parent="m-ObI3ja5nDpz2vfm1fv-27">
          <mxGeometry width="342" height="136" as="geometry" />
        </mxCell>
        <mxCell id="m-ObI3ja5nDpz2vfm1fv-25" value="&lt;font style=&quot;font-size: 12px;&quot;&gt;Регулятор нагрузки&lt;/font&gt;" style="rounded=0;whiteSpace=wrap;html=1;" vertex="1" parent="m-ObI3ja5nDpz2vfm1fv-27">
          <mxGeometry x="21" y="51" width="120" height="60" as="geometry" />
        </mxCell>
        <mxCell id="m-ObI3ja5nDpz2vfm1fv-26" value="Переключатель направления вращения" style="rounded=0;whiteSpace=wrap;html=1;" vertex="1" parent="m-ObI3ja5nDpz2vfm1fv-27">
          <mxGeometry x="201" y="51" width="120" height="60" as="geometry" />
        </mxCell>
        <mxCell id="m-ObI3ja5nDpz2vfm1fv-29" value="" style="group" vertex="1" connectable="0" parent="1">
          <mxGeometry x="241.5" y="692" width="349" height="204" as="geometry" />
        </mxCell>
        <mxCell id="m-ObI3ja5nDpz2vfm1fv-28" value="&lt;font style=&quot;font-size: 14px;&quot;&gt;Система электропитания&lt;/font&gt;" style="rounded=0;whiteSpace=wrap;html=1;verticalAlign=top;" vertex="1" parent="m-ObI3ja5nDpz2vfm1fv-29">
          <mxGeometry width="349" height="204" as="geometry" />
        </mxCell>
        <mxCell id="m-ObI3ja5nDpz2vfm1fv-6" value="&lt;font style=&quot;font-size: 14px;&quot;&gt;Коллектор&lt;/font&gt;" style="rounded=0;whiteSpace=wrap;html=1;" vertex="1" parent="m-ObI3ja5nDpz2vfm1fv-29">
          <mxGeometry x="198" y="32.597938144329895" width="120" height="63.09278350515464" as="geometry" />
        </mxCell>
        <mxCell id="m-ObI3ja5nDpz2vfm1fv-40" style="edgeStyle=orthogonalEdgeStyle;rounded=0;orthogonalLoop=1;jettySize=auto;html=1;exitX=1;exitY=0.5;exitDx=0;exitDy=0;entryX=0;entryY=0.5;entryDx=0;entryDy=0;" edge="1" parent="m-ObI3ja5nDpz2vfm1fv-29" source="m-ObI3ja5nDpz2vfm1fv-7" target="m-ObI3ja5nDpz2vfm1fv-6">
          <mxGeometry relative="1" as="geometry" />
        </mxCell>
        <mxCell id="m-ObI3ja5nDpz2vfm1fv-7" value="&lt;font style=&quot;font-size: 14px;&quot;&gt;Подшипник&lt;/font&gt;" style="rounded=0;whiteSpace=wrap;html=1;" vertex="1" parent="m-ObI3ja5nDpz2vfm1fv-29">
          <mxGeometry x="17" y="32.597938144329895" width="120" height="63.09278350515464" as="geometry" />
        </mxCell>
        <mxCell id="m-ObI3ja5nDpz2vfm1fv-38" style="edgeStyle=orthogonalEdgeStyle;rounded=0;orthogonalLoop=1;jettySize=auto;html=1;entryX=0;entryY=0.5;entryDx=0;entryDy=0;" edge="1" parent="m-ObI3ja5nDpz2vfm1fv-29" source="m-ObI3ja5nDpz2vfm1fv-2" target="m-ObI3ja5nDpz2vfm1fv-5">
          <mxGeometry relative="1" as="geometry" />
        </mxCell>
        <mxCell id="m-ObI3ja5nDpz2vfm1fv-2" value="&lt;font style=&quot;font-size: 14px;&quot;&gt;Кнопка пуска&lt;/font&gt;" style="rounded=0;whiteSpace=wrap;html=1;" vertex="1" parent="m-ObI3ja5nDpz2vfm1fv-29">
          <mxGeometry x="17" y="130.39175257731958" width="120" height="63.09278350515464" as="geometry" />
        </mxCell>
        <mxCell id="m-ObI3ja5nDpz2vfm1fv-39" style="edgeStyle=orthogonalEdgeStyle;rounded=0;orthogonalLoop=1;jettySize=auto;html=1;entryX=0.5;entryY=1;entryDx=0;entryDy=0;" edge="1" parent="m-ObI3ja5nDpz2vfm1fv-29" source="m-ObI3ja5nDpz2vfm1fv-5" target="m-ObI3ja5nDpz2vfm1fv-6">
          <mxGeometry relative="1" as="geometry" />
        </mxCell>
        <mxCell id="m-ObI3ja5nDpz2vfm1fv-5" value="&lt;font style=&quot;font-size: 14px;&quot;&gt;Щеткодержатели&lt;/font&gt;" style="rounded=0;whiteSpace=wrap;html=1;" vertex="1" parent="m-ObI3ja5nDpz2vfm1fv-29">
          <mxGeometry x="198" y="130.39175257731958" width="120" height="63.09278350515464" as="geometry" />
        </mxCell>
        <mxCell id="m-ObI3ja5nDpz2vfm1fv-35" value="" style="group;fontSize=15;" vertex="1" connectable="0" parent="1">
          <mxGeometry x="692" y="498" width="482" height="125" as="geometry" />
        </mxCell>
        <mxCell id="m-ObI3ja5nDpz2vfm1fv-34" value="&lt;font style=&quot;font-size: 14px;&quot;&gt;Система передачи движения&lt;/font&gt;" style="rounded=0;whiteSpace=wrap;html=1;verticalAlign=top;" vertex="1" parent="m-ObI3ja5nDpz2vfm1fv-35">
          <mxGeometry width="482" height="125" as="geometry" />
        </mxCell>
        <mxCell id="m-ObI3ja5nDpz2vfm1fv-46" style="edgeStyle=orthogonalEdgeStyle;rounded=0;orthogonalLoop=1;jettySize=auto;html=1;" edge="1" parent="m-ObI3ja5nDpz2vfm1fv-35" source="m-ObI3ja5nDpz2vfm1fv-14" target="m-ObI3ja5nDpz2vfm1fv-15">
          <mxGeometry relative="1" as="geometry" />
        </mxCell>
        <mxCell id="m-ObI3ja5nDpz2vfm1fv-14" value="&lt;font style=&quot;font-size: 14px;&quot;&gt;Крыльчатка&lt;/font&gt;" style="rounded=0;whiteSpace=wrap;html=1;fontSize=12;" vertex="1" parent="m-ObI3ja5nDpz2vfm1fv-35">
          <mxGeometry x="19" y="42.44652406417113" width="120" height="40.106951871657756" as="geometry" />
        </mxCell>
        <mxCell id="m-ObI3ja5nDpz2vfm1fv-47" style="edgeStyle=orthogonalEdgeStyle;rounded=0;orthogonalLoop=1;jettySize=auto;html=1;" edge="1" parent="m-ObI3ja5nDpz2vfm1fv-35" source="m-ObI3ja5nDpz2vfm1fv-15" target="m-ObI3ja5nDpz2vfm1fv-22">
          <mxGeometry relative="1" as="geometry" />
        </mxCell>
        <mxCell id="m-ObI3ja5nDpz2vfm1fv-15" value="&lt;font style=&quot;font-size: 14px;&quot;&gt;Редуктор&lt;/font&gt;" style="rounded=0;whiteSpace=wrap;html=1;" vertex="1" parent="m-ObI3ja5nDpz2vfm1fv-35">
          <mxGeometry x="180" y="42.44652406417113" width="120" height="40.106951871657756" as="geometry" />
        </mxCell>
        <mxCell id="m-ObI3ja5nDpz2vfm1fv-22" value="&lt;font style=&quot;font-size: 14px;&quot;&gt;Патрон&lt;/font&gt;" style="rounded=0;whiteSpace=wrap;html=1;" vertex="1" parent="m-ObI3ja5nDpz2vfm1fv-35">
          <mxGeometry x="341" y="42.44652406417113" width="120" height="40.106951871657756" as="geometry" />
        </mxCell>
        <mxCell id="m-ObI3ja5nDpz2vfm1fv-37" style="edgeStyle=orthogonalEdgeStyle;rounded=0;orthogonalLoop=1;jettySize=auto;html=1;entryX=0;entryY=0.5;entryDx=0;entryDy=0;" edge="1" parent="1" source="m-ObI3ja5nDpz2vfm1fv-3" target="m-ObI3ja5nDpz2vfm1fv-2">
          <mxGeometry relative="1" as="geometry" />
        </mxCell>
        <mxCell id="m-ObI3ja5nDpz2vfm1fv-44" style="edgeStyle=orthogonalEdgeStyle;rounded=0;orthogonalLoop=1;jettySize=auto;html=1;entryX=0.5;entryY=0;entryDx=0;entryDy=0;" edge="1" parent="1" source="m-ObI3ja5nDpz2vfm1fv-24" target="m-ObI3ja5nDpz2vfm1fv-12">
          <mxGeometry relative="1" as="geometry" />
        </mxCell>
        <mxCell id="m-ObI3ja5nDpz2vfm1fv-48" value="&lt;font style=&quot;font-size: 14px;&quot;&gt;Насадка&lt;/font&gt;" style="rounded=0;whiteSpace=wrap;html=1;" vertex="1" parent="1">
          <mxGeometry x="1287" y="530" width="120" height="60" as="geometry" />
        </mxCell>
        <mxCell id="m-ObI3ja5nDpz2vfm1fv-49" style="edgeStyle=orthogonalEdgeStyle;rounded=0;orthogonalLoop=1;jettySize=auto;html=1;entryX=0;entryY=0.5;entryDx=0;entryDy=0;" edge="1" parent="1" source="m-ObI3ja5nDpz2vfm1fv-22" target="m-ObI3ja5nDpz2vfm1fv-48">
          <mxGeometry relative="1" as="geometry" />
        </mxCell>
        <mxCell id="m-ObI3ja5nDpz2vfm1fv-45" style="edgeStyle=orthogonalEdgeStyle;rounded=0;orthogonalLoop=1;jettySize=auto;html=1;entryX=0;entryY=0.5;entryDx=0;entryDy=0;" edge="1" parent="1" source="m-ObI3ja5nDpz2vfm1fv-12" target="m-ObI3ja5nDpz2vfm1fv-14">
          <mxGeometry relative="1" as="geometry" />
        </mxCell>
        <mxCell id="m-ObI3ja5nDpz2vfm1fv-50" style="edgeStyle=orthogonalEdgeStyle;rounded=0;orthogonalLoop=1;jettySize=auto;html=1;exitX=0.75;exitY=0;exitDx=0;exitDy=0;entryX=0.638;entryY=1.013;entryDx=0;entryDy=0;entryPerimeter=0;fontSize=14;" edge="1" parent="1" source="m-ObI3ja5nDpz2vfm1fv-6" target="m-ObI3ja5nDpz2vfm1fv-12">
          <mxGeometry relative="1" as="geometry" />
        </mxCell>
      </root>
    </mxGraphModel>
  </diagram>
</mxfile>
